<?xml version="1.0" encoding="UTF-8"?>
<svg width="512" height="512.00102" xmlns="http://www.w3.org/2000/svg" xmlns:svg="http://www.w3.org/2000/svg">
 <g>
  <title>Layer 1</title>
  <path fill="#ffffff" id="svg_1" d="m426.492188,348.875l-0.03125,0c-14.722657,-0.007812 -23.035157,-7.648438 -27.792969,-25.53125c-4.863281,-18.289062 -5.027344,-44.8125 -5.199219,-72.894531c-0.207031,-34.023438 -0.441406,-72.585938 -8.898438,-107.074219c-1,-4.078125 -5.121093,-6.574219 -9.199218,-5.574219c-4.074219,1 -6.570313,5.117188 -5.574219,9.195313c8.035156,32.75 8.261719,70.363281 8.464844,103.546875c0.179687,29.078125 0.34375,56.542969 5.707031,76.707031c2.332031,8.769531 5.675781,15.976562 9.996094,21.625l-316.855469,0c4.320313,-5.648438 7.664063,-12.855469 9.996094,-21.625c5.363281,-20.164062 5.53125,-47.628906 5.707031,-76.707031c0.269531,-44.394531 0.578125,-94.710938 18.742188,-133.21875c20.445312,-43.347657 61,-64.421875 123.984374,-64.421875c34.589844,0 62.894532,6.5 84.125,19.324218c18.410157,11.117188 31.925782,26.917969 41.320313,48.304688c1.6875,3.84375 6.175781,5.59375 10.019531,3.902344c3.84375,-1.6875 5.59375,-6.171875 3.90625,-10.019532c-10.550781,-24.015624 -26.492187,-42.589843 -47.382812,-55.207031c-13.335938,-8.054687 -28.996094,-13.863281 -46.832032,-17.402343c-1.796874,-23.347657 -21.355468,-41.804688 -45.15625,-41.804688c-23.800781,0 -43.363281,18.460938 -45.148437,41.8125c-17.015625,3.371094 -32.058594,8.804688 -44.96875,16.285156c-20.773437,12.039063 -36.796875,29.785156 -47.625,52.738282c-19.59375,41.542968 -19.914063,93.644531 -20.191406,139.613281c-0.171875,28.082031 -0.332031,54.605469 -5.199219,72.894531c-4.757812,17.882812 -13.070312,25.523438 -27.792969,25.53125l-0.03125,0c-24.582031,0 -44.582031,20 -44.582031,44.585938c0,24.582031 20,44.582031 44.582031,44.582031l48.128907,0c4.199218,0 7.605468,-3.40625 7.605468,-7.605469s-3.40625,-7.601562 -7.605468,-7.601562l-48.128907,0c-16.195312,0 -29.375,-13.179688 -29.375,-29.375c0,-16.195313 13.175781,-29.371094 29.371094,-29.375l0.003906,0l0.027344,0l381.851563,0l0.027343,0l0.007813,0c16.191406,0.003906 29.367187,13.179687 29.367187,29.375c0,16.195312 -13.179687,29.375 -29.375,29.375l-303.359375,0c-4.199218,0 -7.601562,3.402343 -7.601562,7.601562s3.402344,7.605469 7.601562,7.605469l31.214844,0c3.847656,41.421875 38.785156,73.957031 81.195312,73.957031c42.40625,0 77.34375,-32.535156 81.191407,-73.957031l109.761719,0c24.582031,0 44.582031,-20 44.582031,-44.582031c0,-24.585938 -20,-44.585938 -44.582031,-44.585938zm-190.953126,-333.667969c14.5625,0 26.742188,10.402344 29.503907,24.164063c-9.335938,-1.101563 -19.164063,-1.675782 -29.503907,-1.675782c-10.339843,0 -20.167968,0.570313 -29.5,1.671876c2.761719,-13.761719 14.9375,-24.160157 29.5,-24.160157zm0,481.585938c-34.015624,0 -62.121093,-25.734375 -65.90625,-58.75l131.808594,0c-3.785156,33.015625 -31.890625,58.75 -65.902344,58.75zm0,0"/>
  <path fill="#ffffff" id="svg_2" d="m357.632812,47.722656c0.136719,0.074219 13.675782,7.800782 26.996094,25.75c17.84375,24.039063 26.886719,54.070313 26.886719,89.261719c0,4.199219 3.40625,7.605469 7.605469,7.605469c4.199218,0 7.605468,-3.40625 7.605468,-7.605469c0,-48.445313 -16.542968,-80.601563 -30.421874,-99.042969c-15.25,-20.265625 -30.644532,-28.910156 -31.292969,-29.269531c-3.667969,-2.023437 -8.269531,-0.695313 -10.308594,2.960937c-2.039063,3.660157 -0.722656,8.285157 2.929687,10.339844zm0,0"/>
  <path fill="#ffffff" id="svg_3" d="m415.003906,50.511719c1.222656,0.800781 29.96875,20.09375 29.96875,68.632812c0,4.199219 3.40625,7.601563 7.605469,7.601563s7.601563,-3.402344 7.601563,-7.601563c0,-57.25 -35.464844,-80.480469 -36.976563,-81.441406c-3.527344,-2.246094 -8.191406,-1.207031 -10.457031,2.3125c-2.265625,3.515625 -1.246094,8.210937 2.257812,10.496094zm0,0"/>
  <path fill="#ffffff" id="svg_4" d="m51.949219,170.339844c4.199219,0 7.605469,-3.40625 7.605469,-7.605469c0,-35.191406 9.046874,-65.222656 26.886718,-89.261719c13.238282,-17.835937 26.695313,-25.578125 26.992188,-25.75c3.660156,-2.035156 4.988281,-6.652344 2.960937,-10.320312c-2.035156,-3.675782 -6.660156,-5.007813 -10.335937,-2.980469c-0.648438,0.359375 -16.042969,9.003906 -31.292969,29.269531c-13.875,18.441406 -30.417969,50.597656 -30.417969,99.042969c0,4.199219 3.402344,7.605469 7.601563,7.605469zm0,0"/>
  <path fill="#ffffff" id="svg_5" d="m18.496094,126.746094c4.199218,0 7.601562,-3.402344 7.601562,-7.601563c0,-48.5 28.703125,-67.804687 29.96875,-68.628906c3.515625,-2.261719 4.546875,-6.945313 2.300782,-10.476563c-2.253907,-3.542968 -6.953126,-4.585937 -10.5,-2.332031c-1.507813,0.960938 -36.976563,24.1875 -36.976563,81.4375c0,4.199219 3.40625,7.601563 7.605469,7.601563zm0,0"/>
 </g>
</svg>